# xmcd
#
# Track frame offsets: 
#        150
#        28445
#        48986
#        63305
#        84358
#        106099
#        140126
#        162325
#
# Disc length: 2475 seconds
#
# Revision: 0
# Processed by: cddbd v1.5.1PL0 Copyright (c) Steve Scherf et al.
# Submitted via: ExactAudioCopy v0.95a3
#
DISCID=6909a908
DTITLE=Engerling - Tagtraum...
DYEAR=1980
DGENRE=Blues
TTITLE0=Muschellied
TTITLE1=Engerling's Blues
TTITLE2=21 Uhr 55
TTITLE3=Knüppel aus dem Sack
TTITLE4=Tommy Simpson
TTITLE5=Tagtraum früh im Park
TTITLE6=Auf verlorenem Posten
TTITLE7=Nachtliedchen
EXTD=
EXTT0=
EXTT1=
EXTT2=
EXTT3=
EXTT4=
EXTT5=
EXTT6=
EXTT7=
PLAYORDER=
